<?xml version="1.0" standalone="no"?>
<svg xmlns:xlink="http://www.w3.org/1999/xlink" id="wave" style="transform:rotate(0deg); transition: 0.3s" viewBox="0 0 1100 490" version="1.1" xmlns="http://www.w3.org/2000/svg"><defs><linearGradient id="sw-gradient-0" x1="0" x2="0" y1="1" y2="0"><stop stop-color="rgba(243, 188.037, 62, 1)" offset="0%"/><stop stop-color="rgba(255, 179, 11, 1)" offset="100%"/></linearGradient></defs><path style="transform:translate(0, 0px); opacity:1" fill="url(#sw-gradient-0)" d="M0,98L60,155.2C120,212,240,327,360,310.3C480,294,600,147,720,98C840,49,960,98,1080,130.7C1200,163,1320,180,1440,196C1560,212,1680,229,1800,228.7C1920,229,2040,212,2160,236.8C2280,261,2400,327,2520,302.2C2640,278,2760,163,2880,114.3C3000,65,3120,82,3240,122.5C3360,163,3480,229,3600,261.3C3720,294,3840,294,3960,277.7C4080,261,4200,229,4320,228.7C4440,229,4560,261,4680,228.7C4800,196,4920,98,5040,57.2C5160,16,5280,33,5400,89.8C5520,147,5640,245,5760,236.8C5880,229,6000,114,6120,130.7C6240,147,6360,294,6480,359.3C6600,425,6720,408,6840,383.8C6960,359,7080,327,7200,310.3C7320,294,7440,294,7560,245C7680,196,7800,98,7920,98C8040,98,8160,196,8280,228.7C8400,261,8520,229,8580,212.3L8640,196L8640,490L8580,490C8520,490,8400,490,8280,490C8160,490,8040,490,7920,490C7800,490,7680,490,7560,490C7440,490,7320,490,7200,490C7080,490,6960,490,6840,490C6720,490,6600,490,6480,490C6360,490,6240,490,6120,490C6000,490,5880,490,5760,490C5640,490,5520,490,5400,490C5280,490,5160,490,5040,490C4920,490,4800,490,4680,490C4560,490,4440,490,4320,490C4200,490,4080,490,3960,490C3840,490,3720,490,3600,490C3480,490,3360,490,3240,490C3120,490,3000,490,2880,490C2760,490,2640,490,2520,490C2400,490,2280,490,2160,490C2040,490,1920,490,1800,490C1680,490,1560,490,1440,490C1320,490,1200,490,1080,490C960,490,840,490,720,490C600,490,480,490,360,490C240,490,120,490,60,490L0,490Z"/></svg>